<svg xmlns="http://www.w3.org/2000/svg" width="54" height="54" viewBox="0 0 54 54"><g transform="translate(-541 -647)"><g transform="translate(541 647)" fill="#f5f2ed" stroke="#707070" stroke-width="1.5"><circle cx="27" cy="27" r="27" stroke="none"/><circle cx="27" cy="27" r="26.25" fill="none"/></g><g transform="translate(578 664) rotate(90)" fill="#f5f2ed"><path d="M 19.25895881652832 17.24999809265137 L 1.741039037704468 17.24999809265137 C 1.615128993988037 17.24999809265137 1.551169037818909 17.17137908935547 1.524259090423584 17.12451934814453 C 1.497339010238647 17.0776481628418 1.461649060249329 16.9827880859375 1.525099039077759 16.8740291595459 L 10.28404903411865 1.858668923377991 C 10.34700870513916 1.750748872756958 10.44636917114258 1.734638810157776 10.49999904632568 1.734638810157776 C 10.55362892150879 1.734638810157776 10.65298938751221 1.750748872756958 10.71594905853271 1.858668923377991 L 19.47490882873535 16.8740291595459 C 19.53834915161133 16.9827880859375 19.50265884399414 17.0776481628418 19.47573852539062 17.12451934814453 C 19.44882965087891 17.17137908935547 19.38486862182617 17.24999809265137 19.25895881652832 17.24999809265137 Z" stroke="none"/><path d="M 10.50000190734863 2.976956367492676 L 2.611555099487305 16.49999809265137 L 18.38843727111816 16.49999809265137 L 10.50000190734863 2.976956367492676 M 10.49999904632568 0.9846363067626953 C 10.83541870117188 0.9846363067626953 11.17083930969238 1.150012969970703 11.36377906799316 1.480768203735352 L 20.12273979187012 16.49612808227539 C 20.51161956787109 17.16278839111328 20.03074836730957 17.99999809265137 19.25895881652832 17.99999809265137 L 1.741039276123047 17.99999809265137 C 0.9692497253417969 17.99999809265137 0.4883785247802734 17.16278839111328 0.87725830078125 16.49612808227539 L 9.636219024658203 1.480768203735352 C 9.829158782958984 1.150012969970703 10.16457939147949 0.9846363067626953 10.49999904632568 0.9846363067626953 Z" stroke="none" fill="#707070"/></g></g></svg>