<svg xmlns="http://www.w3.org/2000/svg" width="213.027" height="215.69" viewBox="0 0 213.027 215.69"><g transform="translate(-3.161)" opacity="0.17"><g transform="translate(3.161 0)"><g transform="translate(0)"><path d="M170.7,204.462c18.171-7.7,28.178-18.375,28.178-30.046s-10.007-22.341-28.178-30.046a132.09,132.09,0,0,0-25.632-7.649,97.325,97.325,0,0,0,10.427-3.267c14.238-5.412,22.08-13.088,22.08-21.615s-7.842-16.2-22.08-21.615a99.836,99.836,0,0,0-12.1-3.673,59.634,59.634,0,0,0,7.624-3.039c10.256-4.979,15.9-11.94,15.9-19.6s-5.648-14.625-15.9-19.6a67.2,67.2,0,0,0-15.775-5.172c8.408-4.209,13.039-10.049,13.039-16.5,0-6.588-4.821-12.545-13.575-16.771C126.881,2.082,116.571,0,105.68,0S84.48,2.082,76.649,5.863C67.9,10.09,63.075,16.046,63.075,22.634S67.9,35.179,76.649,39.406a52.592,52.592,0,0,0,8.766,3.244c-1.3.518-2.566,1.068-3.774,1.655-10.256,4.979-15.9,11.94-15.9,19.6s5.648,14.625,15.9,19.6c.48.233.973.457,1.469.68a116.1,116.1,0,0,0-24.583,6.033c-14.238,5.412-22.08,13.088-22.08,21.614s7.842,16.2,22.08,21.615a97.359,97.359,0,0,0,10.427,3.267,132.08,132.08,0,0,0-25.632,7.649c-18.171,7.7-28.178,18.375-28.178,30.046s10.007,22.341,28.178,30.046c2.749,1.166,5.643,2.246,8.662,3.24H3.161v7.989H194.886V207.7H162.04C165.058,206.708,167.953,205.628,170.7,204.462ZM80.123,32.211c-5.757-2.78-9.059-6.271-9.059-9.577s3.3-6.8,9.059-9.577c6.769-3.268,15.845-5.068,25.558-5.068s18.789,1.8,25.558,5.068c5.758,2.78,9.059,6.271,9.059,9.577s-3.3,6.8-9.059,9.577c-6.769,3.268-15.845,5.068-25.558,5.068S86.892,35.48,80.123,32.211Zm-6.4,31.7c0-4.374,4.157-8.9,11.4-12.417,8.267-4.013,19.348-6.223,31.2-6.223s22.934,2.21,31.2,6.223c7.247,3.518,11.4,8.043,11.4,12.417s-4.157,8.9-11.4,12.417c-8.267,4.013-19.348,6.223-31.2,6.223s-22.934-2.21-31.2-6.223C77.883,72.807,73.726,68.282,73.726,63.908ZM61.365,125.987c-10.6-4.029-16.93-9.319-16.93-14.147s6.329-10.118,16.93-14.147c12.139-4.615,28.35-7.156,45.646-7.156s33.507,2.541,45.646,7.156c10.6,4.029,16.93,9.318,16.93,14.147s-6.329,10.118-16.93,14.147c-12.139,4.615-28.35,7.156-45.646,7.156S73.5,130.6,61.365,125.987ZM46.441,197.107c-14.813-6.281-23.308-14.552-23.308-22.691s8.5-16.411,23.308-22.691c16.111-6.832,37.622-10.594,60.571-10.594s44.46,3.762,60.571,10.594c14.813,6.281,23.308,14.552,23.308,22.691s-8.5,16.411-23.308,22.691c-16.111,6.832-37.622,10.595-60.571,10.595S62.552,203.94,46.441,197.107Z" transform="translate(-3.161 0)" fill="#c9ac78"/></g></g><g transform="translate(39.109 157.108)"><path d="M88.494,392.91h7.989c0-5,11.65-11.983,30.623-11.983v-7.989C105.093,372.938,88.494,381.524,88.494,392.91Z" transform="translate(-88.494 -372.939)" fill="#c9ac78"/></g><g transform="translate(60.412 101.188)"><path d="M139.062,256.494h7.988c0-3.307,9.028-8.308,22.634-8.308V240.2C152.227,240.2,139.062,247.2,139.062,256.494Z" transform="translate(-139.062 -240.198)" fill="#c9ac78"/></g><g transform="translate(87.041 53.257)"><g transform="translate(0)"><path d="M202.272,141.492h7.989c0-1.016,1.451-2.711,4.692-4.21a38.063,38.063,0,0,1,15.279-2.873V126.42C214.292,126.42,202.272,132.9,202.272,141.492Z" transform="translate(-202.272 -126.42)" fill="#c9ac78"/></g></g><g transform="translate(82.386 15.977)"><path d="M191.223,47.693l6.646,4.431a15.828,15.828,0,0,1,12.654-6.21V37.926A23.975,23.975,0,0,0,191.223,47.693Z" transform="translate(-191.223 -37.926)" fill="#c9ac78"/></g><g transform="translate(202.874 207.702)"><rect width="13.314" height="7.989" fill="#c9ac78"/></g><g transform="translate(122.989 178.41)"><g transform="translate(0)"><rect width="10.651" height="7.989" fill="#c9ac78"/></g></g><g transform="translate(133.64 167.759)"><rect width="10.651" height="7.989" fill="#c9ac78"/></g><g transform="translate(133.64 103.851)"><rect width="10.651" height="7.989" fill="#c9ac78"/></g><g transform="translate(122.989 114.502)"><g transform="translate(0)"><rect width="10.651" height="7.989" fill="#c9ac78"/></g></g><g transform="translate(133.64 61.246)"><rect width="10.651" height="7.989" fill="#c9ac78"/></g><g transform="translate(117.663 18.64)"><g transform="translate(0)"><rect width="10.651" height="7.989" fill="#c9ac78"/></g></g><g transform="translate(144.292 178.41)"><rect width="10.651" height="7.989" fill="#c9ac78"/></g></g></svg>