<svg xmlns="http://www.w3.org/2000/svg" width="42.641" height="42.104" viewBox="0 0 42.641 42.104">
  <g id="Group_43" data-name="Group 43" transform="translate(-155.713 -426.396)">
    <path id="Path_184" data-name="Path 184" d="M157.541,468.5H173.18a2.932,2.932,0,0,1-.638-1.828V448.194a2.955,2.955,0,0,1,2.951-2.95h4.9V441.96a1.827,1.827,0,0,0-1.828-1.828h-8.942v-1.379a.9.9,0,0,0-.9-.9h-1.321a.9.9,0,0,0-.9.9v1.379h-8.969a1.827,1.827,0,0,0-1.828,1.828v24.712A1.829,1.829,0,0,0,157.541,468.5Z"/>
    <path id="Path_185" data-name="Path 185" d="M198.354,466.667V448.194a1.827,1.827,0,0,0-1.828-1.828h-8.947v-1.073a.2.2,0,0,0,0-.049.9.9,0,0,0-.894-.849H185.36a.893.893,0,0,0-.893.849c0,.018,0,.031,0,.049v1.073h-8.969a1.827,1.827,0,0,0-1.828,1.828v18.478a1.826,1.826,0,0,0,1.828,1.828h21.033A1.83,1.83,0,0,0,198.354,466.667Z"/>
    <path id="Path_186" data-name="Path 186" d="M167.022,427.017c-1.4,2.848-3.5,8.1-.889,9.661a14.915,14.915,0,0,1,1.257-3.44.719.719,0,0,1,1.289,0,15.213,15.213,0,0,1,1.3,3.467c2.641-1.536.476-6.827-.952-9.684A1.118,1.118,0,0,0,167.022,427.017Z"/>
    <path id="Path_187" data-name="Path 187" d="M185.342,439.773a.719.719,0,0,1,1.289,0,15.213,15.213,0,0,1,1.3,3.467c2.641-1.536.477-6.827-.952-9.684a1.114,1.114,0,0,0-2,.009c-1.4,2.848-3.5,8.1-.89,9.661A14.74,14.74,0,0,1,185.342,439.773Z"/>
  </g>
</svg>
