<svg xmlns="http://www.w3.org/2000/svg" width="44.193" height="43.918" viewBox="0 0 44.193 43.918">
  <g id="Group_30" data-name="Group 30" transform="translate(-607.558 -338.084)">
    <path id="Path_118" data-name="Path 118" d="M637.826,352.045a33.3,33.3,0,0,1-10.2-1.428,9.91,9.91,0,0,1-3.716-2.007v12.212a3.136,3.136,0,0,1,.712-.861,3.924,3.924,0,0,1,2.632-.761c.259,0,.517.009.766.018s.508.018.757.018a5.652,5.652,0,0,0,.834-.05,1.754,1.754,0,0,1,.217-.013,1.6,1.6,0,0,1,1.482,1,9.433,9.433,0,0,0,.766,1.395,6.277,6.277,0,0,1,1.055,2.4A3.308,3.308,0,0,1,631.795,367a.612.612,0,0,0-.068.059.293.293,0,0,1-.046.036c.014,0,.028,0,.041,0a4.889,4.889,0,0,1,.707-.05,3.085,3.085,0,0,1,2.628,1.273,7.012,7.012,0,0,1,.929,2.162,9.624,9.624,0,0,0,.539,1.5,1.594,1.594,0,0,1-.385,1.921.319.319,0,0,1-.059.05c.571.022,1.156.036,1.749.036,7.686,0,13.916-2.089,13.916-4.667v-3.267c-2.6,3.2-9.144,3.656-12.026,3.7a1.383,1.383,0,0,1-1.4-1.382V357.46a1.382,1.382,0,0,1,1.3-1.382c2.932-.163,9.955-.811,12.126-3.267v-4.206a9.89,9.89,0,0,1-3.716,2.008A33.293,33.293,0,0,1,637.826,352.045Z"/>
    <path id="Path_119" data-name="Path 119" d="M637.826,338.084c-6.928,0-12.674,1.7-13.739,3.924.145,1.056,1.545,2.17,3.811,3.022a25.941,25.941,0,0,0,6.7,1.41c1.047.09,2.125.14,3.226.14s2.18-.05,3.227-.14a25.9,25.9,0,0,0,6.7-1.41c2.266-.852,3.67-1.966,3.811-3.022C650.5,339.783,644.754,338.084,637.826,338.084Z"/>
    <path id="Path_120" data-name="Path 120" d="M648.148,346.1c-.326.122-.666.24-1.019.349a34.629,34.629,0,0,1-18.606,0c-.349-.109-.693-.227-1.019-.349a9.705,9.705,0,0,1-3.594-2.134v2.284a1.418,1.418,0,0,0,.014.2c.312,2.488,6.416,4.468,13.9,4.468s13.589-1.985,13.9-4.468a1.484,1.484,0,0,0,.014-.2v-2.284A9.772,9.772,0,0,1,648.148,346.1Z"/>
    <path id="Path_121" data-name="Path 121" d="M614.612,359.9a1.108,1.108,0,1,0-.48-1.491A1.107,1.107,0,0,0,614.612,359.9Z"/>
    <path id="Path_122" data-name="Path 122" d="M609.8,360.006a9.622,9.622,0,0,0,3.33-.784.377.377,0,0,0,.168-.208.393.393,0,0,0-.231-.494l-2.547-.979a.022.022,0,0,1-.014-.027c.005-.018.019-.013.023-.013l2.66.589a.392.392,0,0,0,.458-.259h0a.385.385,0,0,0-.018-.29,9.693,9.693,0,0,0-2.339-2.5c-1.209-.884-1.921-.168-2.678.593a7.208,7.208,0,0,1-.919.82.337.337,0,0,0-.118.159.323.323,0,0,0,0,.217,7.593,7.593,0,0,1,.313,1.192C608.1,359.077,608.3,360.07,609.8,360.006Z"/>
    <path id="Path_123" data-name="Path 123" d="M614.209,364.429c0-.014.009-.027.013-.045a13.044,13.044,0,0,0,.381-1.5,5.928,5.928,0,0,0,.131-1.839.392.392,0,0,0-.675-.2l-1.862,1.984c-.005.005-.014.014-.023.005a.031.031,0,0,1-.014-.023s0,0,.005-.009l1.55-2.238a.47.47,0,0,0,.05-.1.4.4,0,0,0-.059-.363.387.387,0,0,0-.331-.153,9.528,9.528,0,0,0-3.2,1.228,1.731,1.731,0,0,0-.8.888,2.651,2.651,0,0,0,.34,1.812,7.01,7.01,0,0,1,.417,1.16.315.315,0,0,0,.3.245,7.172,7.172,0,0,1,1.218.163C612.713,365.648,613.706,365.838,614.209,364.429Z"/>
    <path id="Path_124" data-name="Path 124" d="M619.9,357.337l-2.478,1.133a.394.394,0,0,0-.209.231.388.388,0,0,0,.186.472,9.611,9.611,0,0,0,3.371.58,1.462,1.462,0,0,0,1.573-1.029,6.211,6.211,0,0,0,.208-1.056,7.713,7.713,0,0,1,.236-1.21.319.319,0,0,0-.136-.367,6.617,6.617,0,0,1-.965-.766c-.8-.711-1.554-1.382-2.71-.43a9.507,9.507,0,0,0-2.184,2.633.391.391,0,0,0,.082.412.4.4,0,0,0,.394.109l2.619-.752c.013-.005.018,0,.018,0s.009.018,0,.023S619.9,357.333,619.9,357.337Z"/>
    <path id="Path_125" data-name="Path 125" d="M616.338,351.623a7.654,7.654,0,0,1-1.069-.611.326.326,0,0,0-.394.009,7.555,7.555,0,0,1-1.033.67c-.608.345-1.183.671-1.373,1.237a1.742,1.742,0,0,0,.1,1.192,9.62,9.62,0,0,0,1.79,2.914.381.381,0,0,0,.358.077.4.4,0,0,0,.267-.254.462.462,0,0,0,.023-.109l.131-2.719v-.009c.005-.013.023-.009.023-.009s.013.009.018.018l.276,2.71a.394.394,0,0,0,.254.331.38.38,0,0,0,.4-.081,5.934,5.934,0,0,0,1.015-1.546,13.075,13.075,0,0,0,.607-1.418c.005-.018.01-.032.014-.045C618.2,352.552,617.294,352.1,616.338,351.623Z"/>
    <path id="Path_126" data-name="Path 126" d="M619.429,365.009c.009-.005.013-.009.018-.009a.023.023,0,0,1,.018.009l2.832,2.755a.562.562,0,0,0,.4.163.589.589,0,0,0,.367-.131h0a.552.552,0,0,0,.2-.367,13.972,13.972,0,0,0-.992-4.862,2.113,2.113,0,0,0-2.08-1.582,7.459,7.459,0,0,0-1.677.276,10.546,10.546,0,0,1-1.758.318.44.44,0,0,0-.267.1.465.465,0,0,0-.159.272,10.525,10.525,0,0,1-.521,1.708c-.539,1.455-1.047,2.832.848,3.888a13.9,13.9,0,0,0,4.708,1.563h0a.56.56,0,0,0,.358-.126.575.575,0,0,0,.091-.789l-2.393-3.145C619.415,365.041,619.406,365.027,619.429,365.009Z"/>
    <path id="Path_127" data-name="Path 127" d="M625.591,373.193a.554.554,0,0,0-.371-.141.58.58,0,0,0-.367.132.552.552,0,0,0-.2.4l-.245,3.942a.026.026,0,0,1-.009.023s-.014,0-.023,0a.017.017,0,0,1-.013,0c-.005-.005-.014-.005-.014-.023L624,373.591a.569.569,0,0,0-.349-.476.555.555,0,0,0-.222-.045.562.562,0,0,0-.381.15,13.956,13.956,0,0,0-2.433,4.327c-.693,2.057.612,2.733,1.989,3.449a10.578,10.578,0,0,1,1.536.91.465.465,0,0,0,.571,0,10.954,10.954,0,0,1,1.514-.952,8.7,8.7,0,0,0,1.323-.829h0a2.128,2.128,0,0,0,.58-2.664A14.013,14.013,0,0,0,625.591,373.193Z"/>
    <path id="Path_128" data-name="Path 128" d="M621.858,372a.564.564,0,0,0-.426-.2.551.551,0,0,0-.15.019l-3.815,1.037h-.014c-.009,0-.014,0-.023-.013a.03.03,0,0,1,.005-.037s0,0,.009,0l3.616-1.591a.5.5,0,0,0,.136-.086.563.563,0,0,0,.2-.494.546.546,0,0,0-.29-.439,13.945,13.945,0,0,0-4.866-.915h-.014a2.539,2.539,0,0,0-1.667.489,3.851,3.851,0,0,0-.961,2.5,10,10,0,0,1-.372,1.749.463.463,0,0,0,.191.539,10.61,10.61,0,0,1,1.386,1.129,3.8,3.8,0,0,0,2.343,1.341,2.538,2.538,0,0,0,1.577-.662.429.429,0,0,0,.054-.045,18.461,18.461,0,0,0,1.6-1.554,8.609,8.609,0,0,0,1.564-2.175A.532.532,0,0,0,621.858,372Z"/>
    <path id="Path_129" data-name="Path 129" d="M626.121,367.809a.562.562,0,0,0,.626.8,8.549,8.549,0,0,0,2.424-1.137A20,20,0,0,0,631,366.183a.384.384,0,0,1,.055-.046c1.649-1.413.874-2.66.059-3.978a10.567,10.567,0,0,1-.852-1.568.468.468,0,0,0-.431-.29.328.328,0,0,0-.063,0,7.163,7.163,0,0,1-.988.059c-.267,0-.535-.009-.8-.018-.244-.009-.489-.018-.725-.018a2.886,2.886,0,0,0-1.907.5,2.524,2.524,0,0,0-.789,1.545,13.993,13.993,0,0,0,0,4.961.553.553,0,0,0,.38.368.71.71,0,0,0,.163.022.566.566,0,0,0,.363-.131.679.679,0,0,0,.109-.118l2.229-3.262c.005-.005.005-.01.009-.01a.019.019,0,0,1,.014,0,.034.034,0,0,1,.022.009c.019.014.014.023.005.036Z"/>
    <path id="Path_130" data-name="Path 130" d="M634.894,370.809c-.408-1.35-.793-2.633-2.469-2.633a4.053,4.053,0,0,0-.549.041,13.934,13.934,0,0,0-4.7,1.591.558.558,0,0,0-.213.571.564.564,0,0,0,.4.43l3.806,1.065c.019,0,.019.013.023.018a.034.034,0,0,1-.009.036.021.021,0,0,1-.014.005h-.009l-3.919-.489a.359.359,0,0,0-.073-.005.565.565,0,0,0-.362.131.577.577,0,0,0-.132.73,14.037,14.037,0,0,0,3.721,3.285,2.76,2.76,0,0,0,1.4.453,2.031,2.031,0,0,0,1.323-.53,8.458,8.458,0,0,0,1.06-1.146c.136-.163.272-.331.413-.494a7.849,7.849,0,0,1,.8-.82.46.46,0,0,0,.113-.558A10.43,10.43,0,0,1,634.894,370.809Z"/>
    <path id="Path_131" data-name="Path 131" d="M623.91,368.643a1.631,1.631,0,0,0-.689.227,1.606,1.606,0,1,0,1.659,2.75,1.531,1.531,0,0,0,.358-.3,1.606,1.606,0,0,0-1.192-2.682A.716.716,0,0,0,623.91,368.643Z"/>
  </g>
</svg>
