<svg xmlns="http://www.w3.org/2000/svg" width="52.402" height="36.455" viewBox="0 0 52.402 36.455">
  <g id="Group_44" data-name="Group 44" transform="translate(-491.495 -520.132)">
    <path id="Path_188" data-name="Path 188" d="M530.267,544.852a12.512,12.512,0,0,1-2.994,8.123,12.74,12.74,0,0,1-2.8,2.443,9.731,9.731,0,0,0,11.764-1.947c2.7-2.907,4.563-8.031,5.793-12.675a1.38,1.38,0,0,0-.41-1.381l-2.168-1.947,2.713-.664a1.376,1.376,0,0,0,1.025-1.073c.356-1.807.582-3.28.706-4.132a.572.572,0,0,0-.69-.642,73.371,73.371,0,0,0-14.908,4.963A25.885,25.885,0,0,1,530.267,544.852Z"/>
    <path id="Path_189" data-name="Path 189" d="M499.156,553.471a9.719,9.719,0,0,0,11.812,1.915,12.523,12.523,0,0,1-4.957-6.133,12.46,12.46,0,0,1-.8-4.4,25.633,25.633,0,0,1,1.968-8.9,54.489,54.489,0,0,0-6.456-2.621,1.376,1.376,0,0,0-1.17.135l-3.091,1.92.1-2.222a1.377,1.377,0,0,0-1.019-1.392c-1.446-.388-2.622-.658-3.35-.82a.57.57,0,0,0-.69.642C491.987,534.986,494.139,548.056,499.156,553.471Z"/>
    <path id="Path_190" data-name="Path 190" d="M512.214,554.571a11.112,11.112,0,0,0,3.641,1.3.518.518,0,0,0,.1.006.572.572,0,0,0,.566-.534l.647-9.294a.573.573,0,0,1,1.144,0l.647,9.294a.575.575,0,0,0,.566.534.518.518,0,0,0,.1-.006,11.168,11.168,0,0,0,9.294-11.014,24.536,24.536,0,0,0-1.839-8.317,58.062,58.062,0,0,0-2.552-5.7.574.574,0,0,0-.442-.307l-4.331-.54,2.395-2.713a.576.576,0,0,0,.064-.669c-1.661-2.842-3.182-5.108-3.948-6.213a.617.617,0,0,0-.518-.27.632.632,0,0,0-.517.27,83.594,83.594,0,0,0-8.835,16.181,24.478,24.478,0,0,0-1.823,8.274A11.154,11.154,0,0,0,512.214,554.571Z"/>
  </g>
</svg>
