<svg xmlns="http://www.w3.org/2000/svg" width="44.51" height="37.989" viewBox="0 0 44.51 37.989">
  <g id="Group_39" data-name="Group 39" transform="translate(-606.695 -603.027)">
    <path id="Path_166" data-name="Path 166" d="M644.893,623.046c0,.083,0,.167,0,.241a3.558,3.558,0,0,1-.541,1.86,5.773,5.773,0,0,1-1.342,1.481,14.156,14.156,0,0,1-4.313,2.184,43.538,43.538,0,0,1-13.444,1.9c-4.993,0-8.862-.657-11.491-1.958a9.629,9.629,0,0,1-1.221-.712c-3.541,1.934-5.85,3.924-5.85,5.428,0,4.165,9.964,7.548,22.255,7.548s22.255-3.378,22.255-7.548A11.309,11.309,0,0,0,644.893,623.046Zm-3.832,14.129c-4.429,1.009-8.261.763-8.562-.546s5.526-5.234,9.955-6.243,5.789,1.286,6.085,2.591S645.49,636.171,641.061,637.175Z"/>
    <path id="Path_167" data-name="Path 167" d="M613.72,627.424c2.263,1.3,6,2.134,11.532,2.134,10.209,0,18.484-2.81,18.484-6.271,0-.236-.01-.486-.028-.75a9.724,9.724,0,0,0-2.277-5.683,33.217,33.217,0,0,1-10.112,1.43,32.285,32.285,0,0,1-10.782-1.661c-.445-.162-.861-.338-1.25-.519-4.877,2.2-8.339,5.2-8.339,7.183C610.948,624.87,611.809,626.318,613.72,627.424Zm22.745-6.872c2.569-.583,3.8.3,4.346,1.2a2.85,2.85,0,0,1,.338.838c.231,1.022-2.337,2.475-5.734,3.248s-6.345.574-6.576-.449c-.171-.749,2.193-2.6,4.808-3.827A13.7,13.7,0,0,1,636.465,620.552Z"/>
    <path id="Path_168" data-name="Path 168" d="M619.32,614.827c.217.116.449.227.689.334s.5.212.764.314a30.767,30.767,0,0,0,10.542,1.652,33.117,33.117,0,0,0,9.181-1.194c.218-.064.435-.134.644-.2s.411-.144.61-.218c2.624-.981,4.239-2.328,4.239-3.818,0-3-11.685-8.667-19.793-8.667s-9.556,5.673-9.556,8.672C616.64,612.865,617.635,613.943,619.32,614.827Zm15.41-2.5a2.5,2.5,0,0,1,2.1-1.943,7.654,7.654,0,0,1,1.9-.213c2,0,4.109.574,4.271,1.2.209.8-1.309,1.9-3.434,2.508-.092.028-.185.051-.277.074-.2.051-.384.093-.569.135-.371.073-.732.129-1.069.161a7.741,7.741,0,0,1-.787.042c-1.129,0-1.944-.278-2.073-.791V613.5a3.025,3.025,0,0,1-.088-.6A2.218,2.218,0,0,1,634.73,612.328Z"/>
  </g>
</svg>
