<svg xmlns="http://www.w3.org/2000/svg" width="44.889" height="44.211" viewBox="0 0 44.889 44.211">
  <g id="Group_37" data-name="Group 37" transform="translate(-496.108 -337.545)">
    <path id="Path_154" data-name="Path 154" d="M507.7,378l-.142-.043v.96c0,1.564,3.583,2.835,8,2.835s8-1.266,8-2.835v-.931A30.441,30.441,0,0,1,507.7,378Z"/>
    <path id="Path_155" data-name="Path 155" d="M517.664,352.489a2.076,2.076,0,0,0-.118-.6,2.136,2.136,0,0,0-.326-.609,2.071,2.071,0,0,0-3.322,0,2.222,2.222,0,0,0-.326.61,2.289,2.289,0,0,0-.118.6,24.928,24.928,0,0,0-10.941,3.242H529A27.177,27.177,0,0,0,517.664,352.489Z"/>
    <path id="Path_156" data-name="Path 156" d="M498.4,359.228a9.41,9.41,0,0,0-2.212,5.907c0,5.156,4.665,9.594,11.375,11.593a28.065,28.065,0,0,0,8,1.134,28.486,28.486,0,0,0,8-1.106,21.965,21.965,0,0,0,3.8-1.5,17.87,17.87,0,0,0,7.24-7.145l6.045-9.887a.945.945,0,0,0-.809-1.437H537.92a1.906,1.906,0,0,0-.775.161s-2.869,1.163-3.918,1.564a.223.223,0,0,1-.3-.255l.284-1.347.033-.151,1.72-8.2a2.252,2.252,0,0,0-.454-1.89,25.041,25.041,0,0,0-4.655-4.357,25.367,25.367,0,0,0-6.039-3.275,23.534,23.534,0,0,0-16.5,0,25.487,25.487,0,0,0-6.045,3.275,24.831,24.831,0,0,0-4.65,4.343,2.266,2.266,0,0,0-.463,1.9C496.667,351.005,497.957,357.139,498.4,359.228Zm.473-11.574a23.922,23.922,0,0,1,3.861-3.478,22.888,22.888,0,0,1,5.458-2.94,21.129,21.129,0,0,1,14.745,0,23.088,23.088,0,0,1,5.458,2.94,24.161,24.161,0,0,1,3.861,3.478,1.189,1.189,0,0,1,.274,1.025l-1.479,6.844-.132.6-.043.189-.127.591-.151.709H500.481l-.085-.4-.066-.307-.236-1.11-.015-.071-1.484-7.047A1.181,1.181,0,0,1,498.87,347.654Z"/>
    <path id="Path_157" data-name="Path 157" d="M537.206,349.407a10.146,10.146,0,0,0,1.229,1.739,4.53,4.53,0,0,1,.562,3.828c-.014.067-.028.128-.038.171-.018.094-.033.146-.033.146s.052-.019.142-.061c.043-.024.1-.052.161-.09a3.758,3.758,0,0,0,.973-5.5,8.267,8.267,0,0,1-1.209-1.735,5.545,5.545,0,0,1-.161-3.067c.014-.085.028-.165.038-.231s.023-.128.028-.175c.019-.1.028-.151.028-.151a.936.936,0,0,0-.137.066c-.042.023-.1.057-.156.094s-.127.085-.2.142a4.065,4.065,0,0,0-.5.449,4.063,4.063,0,0,0-.964,1.706,3.847,3.847,0,0,0-.137,1.286A3.383,3.383,0,0,0,537.206,349.407Z"/>
  </g>
</svg>
