<svg xmlns="http://www.w3.org/2000/svg" width="45.416" height="45.557" viewBox="0 0 45.416 45.557">
  <g id="Group_28" data-name="Group 28" transform="translate(-380.907 -424.556)">
    <path id="Path_106" data-name="Path 106" d="M383.274,437.967v15.654a21.017,21.017,0,0,1,1.665-2.085,20.552,20.552,0,0,1,7.38-5.168,21.649,21.649,0,0,1,4.186-1.264,22.428,22.428,0,0,1,4.292-.416c.421,0,.842.01,1.258.034v-6.755a1.935,1.935,0,0,0-1.935-1.936H385.21A1.936,1.936,0,0,0,383.274,437.967Z"/>
    <path id="Path_107" data-name="Path 107" d="M420.178,463.048a4.34,4.34,0,0,1-1.225-1.21c-.111-.155-.372-.566-.687-1.108.015.624,0,1.113-.014,1.3a3.93,3.93,0,0,1-.7,2.11,3.288,3.288,0,0,1-1.815,1.2l-.063.019-.024.005a10.14,10.14,0,0,1-1.737.247,10.1,10.1,0,0,0-1.6.218,1.8,1.8,0,0,1-.421.053,1.679,1.679,0,0,1-1.476-.876,9.27,9.27,0,0,0-.939-1.316,6.442,6.442,0,0,1-1.364-2.323,3.376,3.376,0,0,1,.914-3.184,4.734,4.734,0,0,1-1.171.159,3.122,3.122,0,0,1-2.5-1.171,7.811,7.811,0,0,1-1.079-1.95,9.806,9.806,0,0,0-.721-1.447,1.683,1.683,0,0,1,.17-2.061,9.72,9.72,0,0,0,.948-1.312,4.945,4.945,0,0,1,2.628-2.439,3.193,3.193,0,0,1,.832-.111,3.615,3.615,0,0,1,.968.136,3.57,3.57,0,0,1-.247-.567,18.836,18.836,0,0,0-2.255-.769,21.64,21.64,0,0,0-4.544-.726c-.421-.024-.837-.034-1.258-.034a20.168,20.168,0,0,0-14.963,6.456,21.069,21.069,0,0,0-2.555,3.508c-2.419,4.142-3.784,9.6-.106,13.119a3.672,3.672,0,0,0,2.5,1.137h30.244c3.48,0,4.622-3.407,4.549-6.9A2.883,2.883,0,0,1,420.178,463.048Zm-35.815-1.094a15.83,15.83,0,0,1,1.921-4.989,17.524,17.524,0,0,1,2.139-2.971,16.88,16.88,0,0,1,8.324-5.062,13.556,13.556,0,0,1,4.795-.406.237.237,0,0,1,.078.45,0,0,0,0,0-.005,0c-.392.184-.789.353-1.181.537-.774.363-1.544.745-2.294,1.156a29.28,29.28,0,0,0-4.3,2.831,28.655,28.655,0,0,0-6.184,6.79,24.63,24.63,0,0,0-2.754,5.724.25.25,0,0,1-.474,0v0A8.494,8.494,0,0,1,384.363,461.954Z"/>
    <path id="Path_108" data-name="Path 108" d="M414.134,446.726h.009c.015,0,.02.014.025.019l1.451,3.639.044.106a.6.6,0,0,0,.431.359.925.925,0,0,0,.111.009.63.63,0,0,0,.16-.019h0a.568.568,0,0,0,.338-.262,14.221,14.221,0,0,0,1.1-4.945c.072-2.216-1.4-2.492-2.957-2.783a10.559,10.559,0,0,1-1.771-.44.5.5,0,0,0-.165-.029.378.378,0,0,0-.126.019.468.468,0,0,0-.261.189,10.5,10.5,0,0,1-1.2,1.374c-.789.809-1.549,1.578-1.442,2.6a2.272,2.272,0,0,0,.237.779,3.794,3.794,0,0,0,.373.6c.082.107.213.271.382.475a12.857,12.857,0,0,0,3.349,2.947.612.612,0,0,0,.237.053.5.5,0,0,0,.15-.02.523.523,0,0,0,.193-.1.589.589,0,0,0,.218-.6l-.01-.029-.237-1.017-.672-2.879C414.109,446.75,414.105,446.73,414.134,446.726Z"/>
    <path id="Path_109" data-name="Path 109" d="M424.393,454.9a17.9,17.9,0,0,0-3.993-.576,4.862,4.862,0,0,0-1.05.1.558.558,0,0,0-.3.174.6.6,0,0,0-.14.271.584.584,0,0,0,.2.571l.794.658,2.308,1.921c.015.01.015.02.01.024a.051.051,0,0,1-.024.029h0a.038.038,0,0,1-.02-.005l-1.863-1.127-.953-.581-.629-.382a.569.569,0,0,0-.3-.087h-.01a.8.8,0,0,0-.145.019.585.585,0,0,0-.426.624,14.28,14.28,0,0,0,2.1,4.612,4.469,4.469,0,0,0,.412.5,2.325,2.325,0,0,0,.658.488,1.749,1.749,0,0,0,.619.175c.063,0,.126.009.189.009a2.6,2.6,0,0,0,.692-.1,8.65,8.65,0,0,0,1.466-.625,10.622,10.622,0,0,1,1.679-.716A.473.473,0,0,0,426,460.4a10.728,10.728,0,0,1,.131-1.819C426.328,457,426.517,455.518,424.393,454.9Z"/>
    <path id="Path_110" data-name="Path 110" d="M426.062,447.132a.462.462,0,0,0-.339-.469,10.832,10.832,0,0,1-1.679-.707,5.232,5.232,0,0,0-2.153-.716,1.726,1.726,0,0,0-.5.068,2.564,2.564,0,0,0-1.379,1.113,14.353,14.353,0,0,0-2.076,4.621.582.582,0,0,0,.576.644.55.55,0,0,0,.155-.02.574.574,0,0,0,.15-.067l3.436-2.11a.014.014,0,0,1,.009-.005h.005c.015,0,.024.019.024.019.01.02,0,.029-.009.034l-3.088,2.594a.581.581,0,0,0-.188.585.573.573,0,0,0,.435.426,4.949,4.949,0,0,0,1.007.092,12.8,12.8,0,0,0,1.727-.135,19.254,19.254,0,0,0,2.241-.441c.024,0,.048-.014.068-.019,2.124-.629,1.926-2.115,1.713-3.683A10.861,10.861,0,0,1,426.062,447.132Z"/>
    <path id="Path_111" data-name="Path 111" d="M408.128,449.068a1.907,1.907,0,0,0-.508.068c-.847.237-1.374,1.059-1.935,1.93a10.871,10.871,0,0,1-1.075,1.476.481.481,0,0,0-.048.581,10.936,10.936,0,0,1,.823,1.631c.532,1.224,1.04,2.395,2.472,2.395a3.612,3.612,0,0,0,.9-.126.444.444,0,0,0,.068-.019,19.727,19.727,0,0,0,2.144-.779,8.845,8.845,0,0,0,2.361-1.374.579.579,0,0,0-.309-.992l-3.983-.625c-.014,0-.024-.005-.024-.024,0,0,0-.029.019-.034h.015l4.031.029h.005a.617.617,0,0,0,.159-.019.578.578,0,0,0,.392-.378.568.568,0,0,0-.087-.532,14.208,14.208,0,0,0-4.162-2.884A2.927,2.927,0,0,0,408.128,449.068Z"/>
    <path id="Path_112" data-name="Path 112" d="M417.565,454.526a1.645,1.645,0,0,0,.329-1.2,1.636,1.636,0,0,0-1.626-1.437h-.01a1.364,1.364,0,0,0-.2.015,1.478,1.478,0,0,0-.489.14,1.64,1.64,0,0,0,.692,3.126,1.385,1.385,0,0,0,.2-.015A1.607,1.607,0,0,0,417.565,454.526Z"/>
    <path id="Path_113" data-name="Path 113" d="M411.477,464.437a.472.472,0,0,0,.416.247.528.528,0,0,0,.121-.015,10.567,10.567,0,0,1,1.8-.252,8.8,8.8,0,0,0,1.578-.222h0a2.166,2.166,0,0,0,1.65-2.241,14.225,14.225,0,0,0-.586-5.032.579.579,0,0,0-.527-.334.468.468,0,0,0-.16.024.579.579,0,0,0-.358.29l-1.873,3.572c-.005.014-.014.014-.014.014h-.005a.036.036,0,0,1-.029-.014c-.005-.005-.01-.01-.005-.03l1.321-3.808a.583.583,0,0,0-.547-.774.62.62,0,0,0-.184.029,14.251,14.251,0,0,0-4.069,3.015c-1.5,1.631-.571,2.8.416,4.04A10.272,10.272,0,0,1,411.477,464.437Z"/>
    <path id="Path_114" data-name="Path 114" d="M392.048,430.873a.665.665,0,0,1,1.19,0,14.066,14.066,0,0,1,1.2,3.2c2.438-1.418.44-6.305-.881-8.942a1.031,1.031,0,0,0-1.844.005c-1.287,2.627-3.228,7.476-.823,8.918A13.828,13.828,0,0,1,392.048,430.873Z"/>
  </g>
</svg>
