<svg xmlns="http://www.w3.org/2000/svg" width="38.383" height="38.311" viewBox="0 0 38.383 38.311">
  <g id="Group_36" data-name="Group 36" transform="translate(-157.789 -604.333)">
    <path id="Path_150" data-name="Path 150" d="M182.977,642.644a1.015,1.015,0,0,0,1.014-1.014v-2.012a20.814,20.814,0,0,1-14.02,0v2.012a1.015,1.015,0,0,0,1.014,1.014Z"/>
    <path id="Path_151" data-name="Path 151" d="M193.437,608.955a3.707,3.707,0,0,0-5.184.76l-7.3,9.806h9.237l4-5.382A3.707,3.707,0,0,0,193.437,608.955Z"/>
    <path id="Path_152" data-name="Path 152" d="M170.326,638.62a19.812,19.812,0,0,0,13.309,0,18.959,18.959,0,0,0,12.529-16.106,1.776,1.776,0,0,0-1.769-1.935H159.566a1.776,1.776,0,0,0-1.769,1.935A18.96,18.96,0,0,0,170.326,638.62Z"/>
    <path id="Path_153" data-name="Path 153" d="M164.08,613.989l1.4-3.4,3.588-1.572-3.616-1.378-1.37-3.3-1.374,3.3-3.616,1.378,3.588,1.572Z"/>
  </g>
</svg>
