<svg xmlns="http://www.w3.org/2000/svg" width="43.579" height="39.371" viewBox="0 0 43.579 39.371">
  <g id="Group_31" data-name="Group 31" transform="translate(-380.877 -518.398)">
    <path id="Path_132" data-name="Path 132" d="M422.452,547.457a.248.248,0,0,0-.377.284,2.337,2.337,0,0,1,.151.811c0,3.6-8.756,6.522-19.559,6.522s-19.56-2.917-19.56-6.517a2.245,2.245,0,0,1,.151-.811.247.247,0,0,0-.377-.284,3.985,3.985,0,0,0-2,3.045c0,4.013,9.753,7.262,21.79,7.262s21.789-3.249,21.789-7.262A3.985,3.985,0,0,0,422.452,547.457Z"/>
    <path id="Path_133" data-name="Path 133" d="M416.857,546.181a1.438,1.438,0,0,1,.293.833c0,2.3-6.486,4.158-14.483,4.158s-14.484-1.862-14.484-4.158a1.438,1.438,0,0,1,.293-.833.247.247,0,0,0-.31-.364c-1.534.732-2.417,1.587-2.417,2.5,0,2.682,7.572,4.855,16.913,4.855s16.913-2.173,16.913-4.855c0-.913-.882-1.768-2.416-2.5A.244.244,0,0,0,416.857,546.181Z"/>
    <path id="Path_134" data-name="Path 134" d="M392.382,546.021a.341.341,0,0,0-.16.4c.514,1.529,4.992,2.722,10.445,2.722s9.921-1.193,10.444-2.713a.335.335,0,0,0-.164-.4c-1.241-.651-8.476-3.058-10.014-15.693a2,2,0,1,0-.519,0C400.9,543.02,393.565,545.369,392.382,546.021Z"/>
    <path id="Path_135" data-name="Path 135" d="M405.548,521.284a2.886,2.886,0,1,0-2.886,2.886A2.886,2.886,0,0,0,405.548,521.284Zm-3.79.133a.878.878,0,1,1,.878-.878A.886.886,0,0,1,401.758,521.417Z"/>
  </g>
</svg>
